<?xml version="1.0" encoding="UTF-8"?>
<svg width="68px" height="53px" viewBox="0 0 68 53" version="1.1" xmlns="http://www.w3.org/2000/svg" xmlns:xlink="http://www.w3.org/1999/xlink">
    <!-- Generator: Sketch 56.3 (81716) - https://sketch.com -->
    <title>support-plan-community</title>
    <desc>Created with Sketch.</desc>
    <g id="support-plan-community" stroke="none" stroke-width="1" fill="none" fill-rule="evenodd">
        <path d="M49,19 C49,22.3593918 47.9062609,25.4843605 45.71875,28.375 C43.5312391,31.2656395 40.5820498,33.5507729 36.8710938,35.2304688 C33.1601377,36.9101646 29.0781473,37.75 24.625,37.75 C19.9374766,37.75 15.6015824,36.7734473 11.6171875,34.8203125 C8.2577957,36.7734473 4.78126797,37.75 1.1875,37.75 C0.796873047,37.75 0.523438281,37.5546895 0.3671875,37.1640625 C0.210936719,36.7734355 0.289060937,36.4218766 0.6015625,36.109375 C0.914064063,35.7968734 1.38280937,35.1718797 2.0078125,34.234375 C3.17969336,32.75 4.07812187,31.2656324 4.703125,29.78125 C1.73436016,26.578109 0.25,22.9843949 0.25,19 C0.25,15.6406082 1.34373906,12.5156395 3.53125,9.625 C5.71876094,6.73436055 8.6679502,4.44922715 12.3789062,2.76953125 C16.0898623,1.08983535 20.1718527,0.25 24.625,0.25 C29.0781473,0.25 33.1601377,1.08983535 36.8710938,2.76953125 C40.5820498,4.44922715 43.5312391,6.73436055 45.71875,9.625 C47.9062609,12.5156395 49,15.6406082 49,19 Z M63.296875,44.78125 C63.9218781,46.2656324 64.8203066,47.7890547 65.9921875,49.3515625 C66.6171906,50.2109418 67.0859359,50.7968734 67.3984375,51.109375 C67.7109391,51.4218766 67.7890633,51.7734355 67.6328125,52.1640625 C67.4765617,52.5546895 67.203127,52.75 66.8125,52.75 C63.218732,52.75 59.7422043,51.7734473 56.3828125,49.8203125 C52.3984176,51.7734473 48.0625234,52.75 43.375,52.75 C38.374975,52.75 33.8437703,51.695323 29.78125,49.5859375 C25.7187297,47.476552 22.7500094,44.7031422 20.875,41.265625 C22.281257,41.4218758 23.5312445,41.5 24.625,41.5 C29.7031504,41.5 34.3906035,40.4843852 38.6875,38.453125 C42.9843965,36.4218648 46.4023311,33.6875172 48.9414062,30.25 C51.4804814,26.8124828 52.75,23.0625203 52.75,19 C52.75,18.1406207 52.7109379,17.3593785 52.6328125,16.65625 C57.0859598,18.062507 60.7187359,20.3476404 63.53125,23.5117188 C66.3437641,26.6757971 67.75,30.210918 67.75,34.1171875 C67.75,38.023457 66.2656398,41.578109 63.296875,44.78125 Z" id="" fill="#717F96" fill-rule="nonzero"></path>
    </g>
</svg>