<?xml version="1.0" encoding="UTF-8"?>
<svg width="60px" height="45px" viewBox="0 0 60 45" version="1.1" xmlns="http://www.w3.org/2000/svg" xmlns:xlink="http://www.w3.org/1999/xlink">
    <!-- Generator: Sketch 56.3 (81716) - https://sketch.com -->
    <title>support-plan-standard</title>
    <desc>Created with Sketch.</desc>
    <g id="support-plan-standard" stroke="none" stroke-width="1" fill="none" fill-rule="evenodd">
        <path d="M54.375,0 C55.9375078,0 57.2656195,0.546869531 58.359375,1.640625 C59.4531305,2.73438047 60,4.06249219 60,5.625 L60,39.375 C60,40.9375078 59.4531305,42.2656195 58.359375,43.359375 C57.2656195,44.4531305 55.9375078,45 54.375,45 L5.625,45 C4.06249219,45 2.73438047,44.4531305 1.640625,43.359375 C0.546869531,42.2656195 0,40.9375078 0,39.375 L0,5.625 C0,4.06249219 0.546869531,2.73438047 1.640625,1.640625 C2.73438047,0.546869531 4.06249219,0 5.625,0 L54.375,0 Z M54.375,5.625 L5.625,5.625 L5.625,10.4296875 C8.35938867,12.6171984 13.6327734,16.757782 21.4453125,22.8515625 L22.5,23.7890625 C24.0625078,25.1171941 25.3124953,26.0546848 26.25,26.6015625 C27.7343824,27.6171926 28.9843699,28.125 30,28.125 C31.0156301,28.125 32.2656176,27.6171926 33.75,26.6015625 C34.6875047,26.0546848 35.9374922,25.1171941 37.5,23.7890625 L38.5546875,22.8515625 C46.3672266,16.8359074 51.6406113,12.6953238 54.375,10.4296875 L54.375,5.625 Z M5.625,39.375 L54.375,39.375 L54.375,17.578125 L40.78125,28.359375 C38.8281152,30.0000082 37.2265687,31.1718715 35.9765625,31.875 C33.867177,33.1250062 31.8750094,33.75 30,33.75 C28.125,33.75 26.0937609,33.1250062 23.90625,31.875 C22.7343691,31.1718715 21.1328227,30.0000082 19.1015625,28.359375 L5.625,17.578125 L5.625,39.375 Z" id="" fill="#717F96" fill-rule="nonzero"></path>
    </g>
</svg>