<?xml version="1.0" encoding="UTF-8"?>
<svg width="60px" height="59px" viewBox="0 0 60 59" version="1.1" xmlns="http://www.w3.org/2000/svg" xmlns:xlink="http://www.w3.org/1999/xlink">
    <!-- Generator: Sketch 56.3 (81716) - https://sketch.com -->
    <title>support-plan-premium</title>
    <desc>Created with Sketch.</desc>
    <g id="support-plan-premium" stroke="none" stroke-width="1" fill="none" fill-rule="evenodd">
        <path d="M30,0.4375 C35.2344012,0.4375 40.0781027,1.74608066 44.53125,4.36328125 C48.9843973,6.98048184 52.5195182,10.5156027 55.1367188,14.96875 C57.7539193,19.4218973 59.0625,24.2655988 59.0625,29.5 C59.0625,34.7344012 57.7539193,39.5781027 55.1367188,44.03125 C52.5195182,48.4843973 48.9843973,52.0195182 44.53125,54.6367188 C40.0781027,57.2539193 35.2344012,58.5625 30,58.5625 C24.7655988,58.5625 19.9218973,57.2539193 15.46875,54.6367188 C11.0156027,52.0195182 7.48048184,48.4843973 4.86328125,44.03125 C2.24608066,39.5781027 0.9375,34.7344012 0.9375,29.5 C0.9375,24.2655988 2.24608066,19.4218973 4.86328125,14.96875 C7.48048184,10.5156027 11.0156027,6.98048184 15.46875,4.36328125 C19.9218973,1.74608066 24.7655988,0.4375 30,0.4375 Z M50.390625,14.5 C48.8281172,12.4687398 47.0312602,10.6718828 45,9.109375 L37.6171875,16.609375 C39.8046984,17.9375066 41.5624934,19.6953016 42.890625,21.8828125 L50.390625,14.5 Z M30,40.75 C33.1250156,40.75 35.7812391,39.6562609 37.96875,37.46875 C40.1562609,35.2812391 41.25,32.6250156 41.25,29.5 C41.25,26.3749844 40.1562609,23.7187609 37.96875,21.53125 C35.7812391,19.3437391 33.1250156,18.25 30,18.25 C26.8749844,18.25 24.2187609,19.3437391 22.03125,21.53125 C19.8437391,23.7187609 18.75,26.3749844 18.75,29.5 C18.75,32.6250156 19.8437391,35.2812391 22.03125,37.46875 C24.2187609,39.6562609 26.8749844,40.75 30,40.75 Z M15,9.109375 C12.9687398,10.6718828 11.1718828,12.4687398 9.609375,14.5 L17.109375,21.8828125 C18.4375066,19.6953016 20.1953016,17.9375066 22.3828125,16.609375 L15,9.109375 Z M9.609375,44.5 C11.1718828,46.5312602 12.9687398,48.3281172 15,49.890625 L22.3828125,42.390625 C20.1953016,41.0624934 18.4375066,39.3046984 17.109375,37.1171875 L9.609375,44.5 Z M45,49.890625 C47.0312602,48.3281172 48.8281172,46.5312602 50.390625,44.5 L42.890625,37.1171875 C41.5624934,39.3046984 39.8046984,41.0624934 37.6171875,42.390625 L45,49.890625 Z" id="ï‡" fill="#717F96" fill-rule="nonzero"></path>
    </g>
</svg>