<?xml version="1.0" encoding="UTF-8"?>
<svg width="38px" height="61px" viewBox="0 0 38 61" version="1.1" xmlns="http://www.w3.org/2000/svg" xmlns:xlink="http://www.w3.org/1999/xlink">
    <!-- Generator: Sketch 56.3 (81716) - https://sketch.com -->
    <title>support-plan-priority</title>
    <desc>Created with Sketch.</desc>
    <g id="support-plan-priority" stroke="none" stroke-width="1" fill="none" fill-rule="evenodd">
        <path d="M34.9375,19.25 C36.0312555,19.25 36.8515598,19.7187453 37.3984375,20.65625 C37.9453152,21.5937547 37.9453152,22.5312453 37.3984375,23.46875 L16.7734375,59.09375 C16.2265598,60.0312547 15.4062555,60.5 14.3125,60.5 C13.3749953,60.5 12.6328152,60.148441 12.0859375,59.4453125 C11.5390598,58.742184 11.3828113,57.9218797 11.6171875,56.984375 L17.0078125,34.25 L3.0625,34.25 C2.2031207,34.25 1.50000273,33.9375031 0.953125,33.3125 C0.406247266,32.6874969 0.171874609,31.9453168 0.25,31.0859375 L4,2.9609375 C4.07812539,2.25780898 4.39062227,1.67187734 4.9375,1.203125 C5.48437773,0.734372656 6.10937148,0.5 6.8125,0.5 L22.75,0.5 C23.6875047,0.5 24.4296848,0.871090039 24.9765625,1.61328125 C25.5234402,2.35547246 25.6796887,3.1562457 25.4453125,4.015625 L21.4609375,19.25 L34.9375,19.25 Z" id="" fill="#717F96" fill-rule="nonzero"></path>
    </g>
</svg>