<?xml version="1.0" encoding="UTF-8"?>
<svg width="274px" height="148px" viewBox="0 0 274 148" version="1.1" xmlns="http://www.w3.org/2000/svg" xmlns:xlink="http://www.w3.org/1999/xlink">
    <!-- Generator: Sketch 55.2 (78181) - https://sketchapp.com -->
    <title>community-support</title>
    <desc>Created with Sketch.</desc>
    <g id="community-support" stroke="none" stroke-width="1" fill="none" fill-rule="evenodd">
        <g id="discord-logo" fill="#7289DA" fill-rule="nonzero">
            <path d="M47.9912127,58 C44.0843585,58 41,61.6036036 41,66 C41,70.3963964 44.1528998,74 47.9912127,74 C51.8980668,74 54.9824253,70.3963964 54.9824253,66 C55.0509666,61.6036036 51.8980668,58 47.9912127,58 Z M73.0087873,58 C69.1019332,58 66.0175747,61.6036036 66.0175747,66 C66.0175747,70.3963964 69.1704745,74 73.0087873,74 C76.9156415,74 80,70.3963964 80,66 C80,61.6036036 76.9156415,58 73.0087873,58 Z" id="Shape"></path>
            <path d="M107.708571,0 L14.2914286,0 C6.41371429,0 0,6.394 0,14.317 L0,108.281 C0,116.204 6.41371429,122.598 14.2914286,122.598 L93.3474286,122.598 L89.6525714,109.7405 L98.576,118.011 L107.011429,125.795 L122,139 L122,14.317 C122,6.394 115.586286,0 107.708571,0 Z M80.7988571,90.767 C80.7988571,90.767 78.2891429,87.7785 76.1977143,85.1375 C85.3302857,82.566 88.816,76.867 88.816,76.867 C85.9577143,78.7435 83.2388571,80.064 80.7988571,80.9675 C77.3131429,82.427 73.9668571,83.4 70.6902857,83.956 C63.9977143,85.207 57.8628571,84.8595 52.6342857,83.8865 C48.6605714,83.122 45.2445714,82.01 42.3862857,80.898 C40.7828571,80.2725 39.04,79.508 37.2971429,78.535 C37.088,78.396 36.8788571,78.3265 36.6697143,78.1875 C36.5302857,78.118 36.4605714,78.0485 36.3908571,77.979 C35.136,77.284 34.4388571,76.7975 34.4388571,76.7975 C34.4388571,76.7975 37.7851429,82.3575 46.6388571,84.9985 C44.5474286,87.6395 41.968,90.767 41.968,90.767 C26.5611429,90.2805 20.7051429,80.203 20.7051429,80.203 C20.7051429,57.824 30.744,39.6845 30.744,39.6845 C40.7828571,32.1785 50.3337143,32.3864224 50.3337143,32.3864224 L51.0308571,33.221 C38.4822857,36.835 32.696,42.3255 32.696,42.3255 C32.696,42.3255 34.2297143,41.4915 36.8091429,40.31 C44.2685714,37.0435 50.1942857,36.14 52.6342857,35.9315 C53.0525714,35.862 53.4011429,35.7925 53.8194286,35.7925 C58.072,35.2365 62.8822857,35.0975 67.9017143,35.6535 C74.5245714,36.418 81.6354286,38.364 88.8857143,42.3255 C88.8857143,42.3255 83.3782857,37.113 71.5268571,33.499 L72.5028571,32.3864224 C72.5028571,32.3864224 82.0537143,32.1785 92.0925714,39.6845 C92.0925714,39.6845 102.131429,57.824 102.131429,80.203 C102.131429,80.203 96.2057143,90.2805 80.7988571,90.767 Z" id="Shape"></path>
        </g>
        <g id="logo-craft-stackexchange" transform="translate(152.000000, 0.000000)" fill-rule="nonzero">
            <path d="M103.020286,0 L18.9797143,0 C8.50546395,0.0191651577 0.0191836569,8.49726196 0,18.9614118 L0,102.920941 C0.0191836569,113.385091 8.50546395,121.863188 18.9797143,121.882353 L71.6662857,121.882353 L71.6662857,148 L97.8091429,121.882353 L103.037714,121.882353 C113.505158,121.853615 121.980851,113.378313 122,102.920941 L122,18.9614118 C121.980816,8.49726196 113.494536,0.0191651577 103.020286,0 Z" id="Path" fill="#DB5A48"></path>
            <path d="M82.0262391,41.2017394 C77.7650629,37.9809582 72.5681825,36.2419271 67.2274052,36.2496086 C53.4431487,36.2496086 43.0874636,48.3237085 43.0874636,62.2526701 C43.0699708,74.3092712 51.3790087,81.7462168 61.5947522,81.7462168 C66.8659299,81.6244266 71.9980009,80.030334 76.4110787,77.1440599 L78.7026239,81.8862064 C73.3858808,85.3198224 67.1702006,87.0980785 60.8425656,86.9958254 C54.570095,87.047084 48.5341951,84.6035541 44.0628013,80.2028276 C39.5914075,75.8021011 37.0508258,69.8046946 37,63.5300748 L37,62.8476257 C37.0037305,45.5720435 50.7681482,31.4458823 68.03207,31 C74.1273499,31.0540484 80.0557742,32.9982586 85,36.5645852 L82.0262391,41.2017394 Z" id="Path" fill="#FFFFFF"></path>
        </g>
    </g>
</svg>